<?xml version="1.0" encoding="UTF-8" standalone="no"?>
<svg width="20px" height="20px" viewBox="0 0 20 20" version="1.1" xmlns="http://www.w3.org/2000/svg" xmlns:xlink="http://www.w3.org/1999/xlink">
    <!-- Generator: Sketch 48.2 (47327) - http://www.bohemiancoding.com/sketch -->
    <title>Icons/Minor/Arrow Left/default</title>
    <desc>Created with Sketch.</desc>
    <defs></defs>
    <g id="Symbols" stroke="none" stroke-width="1" fill="none" fill-rule="evenodd">
        <g id="Icons/Minor/Arrow-Left/default" fill="#2B2C2D">
            <path d="M16,9 L4.414,9 L7.707,5.707 C8.098,5.316 8.098,4.684 7.707,4.293 C7.316,3.902 6.684,3.902 6.293,4.293 L1.293,9.293 C0.902,9.684 0.902,10.316 1.293,10.707 L6.293,15.707 C6.488,15.902 6.744,16 7,16 C7.256,16 7.512,15.902 7.707,15.707 C8.098,15.316 8.098,14.684 7.707,14.293 L4.414,11 L16,11 C16.553,11 17,10.552 17,10 C17,9.448 16.553,9 16,9" id="Icon"></path>
        </g>
    </g>
</svg>