<?xml version="1.0" encoding="UTF-8"?>
<svg width="50px" height="50px" viewBox="0 0 50 50" version="1.1" xmlns="http://www.w3.org/2000/svg" xmlns:xlink="http://www.w3.org/1999/xlink">
    <!-- Generator: Sketch 48.2 (47327) - http://www.bohemiancoding.com/sketch -->
    <title>Icons/Medium/Indicate/cycle</title>
    <desc>Created with Sketch.</desc>
    <defs>
        <path d="M21.4418564,31.0216 C20.8348592,31.0546 20.2248914,31.0826 19.6159138,31.1056 C19.3168711,29.1916 18.3533993,27.4346 16.8136267,25.9956 C17.5840081,25.0636 18.366272,24.1416 19.1475457,23.2186 L19.4446079,22.8656 C20.2070677,25.7246 20.8615948,28.3996 21.4418564,31.0216 M12.5903918,31.2196 C13.2508602,30.3856 13.9162796,29.5536 14.5866501,28.7266 C15.2253339,29.4386 15.6828097,30.2686 15.9501657,31.1966 C14.8322215,31.2136 13.7103164,31.2176 12.5903918,31.2196 M8.00474099,31.4636 C7.78986597,31.7426 7.66212921,32.0536 7.62549153,32.3876 C7.55419659,32.5846 7.51656871,32.7836 7.51656871,32.9766 C7.51656871,33.9246 8.3107151,34.7246 9.25042199,34.7246 L10.2881594,34.7246 C10.4555045,34.7246 10.62483,34.6966 10.8040575,34.6396 C10.9852655,34.6976 11.1536008,34.7246 11.3288675,34.7246 C12.8805226,34.7246 14.4311875,34.7176 15.9788818,34.6956 C15.1332446,37.3456 12.1893578,39.1376 9.24844158,38.7356 C7.36605717,38.4786 5.6737926,37.5116 4.60337833,36.0826 C3.70129932,34.8756 3.33393235,33.4596 3.54187592,31.9846 C3.93201766,29.2096 6.13324887,27.0666 9.43361037,26.2456 C10.2208253,26.3406 10.9803144,26.5256 11.694254,26.7976 C10.3446012,28.4686 9.13555792,29.9976 8.00474099,31.4636 M32.5579254,20.7266 C29.6427547,24.0696 27.0969312,26.8096 24.6025986,29.2886 C23.9748071,26.5226 23.2618577,23.6816 22.4310736,20.6276 L22.9123145,20.6256 C26.0740469,20.6096 29.3407414,20.5956 32.5579254,20.7266 M41.4064194,33.3816 C41.8262674,32.9536 41.9648964,32.3776 41.7975514,31.7606 C41.3489874,30.1036 40.9132961,28.3356 40.4706734,26.3696 C44.0195769,27.0636 46.2663577,29.4086 46.5059879,32.7016 C46.6238226,34.3316 46.0158352,35.8676 44.7949094,37.0266 C43.4155504,38.3366 41.3975075,38.9906 39.5319567,38.7356 C37.6505625,38.4786 35.9573077,37.5106 34.8868934,36.0816 C33.9848144,34.8756 33.6174474,33.4596 33.825391,31.9846 C34.0976981,30.0586 35.2661429,28.4056 37.1287231,27.2996 C37.5644144,29.2306 38.0010959,30.9986 38.4585718,32.6916 C38.6239364,33.3056 39.0319019,33.7276 39.605232,33.8796 C40.2290627,34.0446 40.9538946,33.8446 41.4064194,33.3816 M40.3261031,22.8096 C40.1260812,22.7376 39.9121963,22.7046 39.6923703,22.7146 C39.1655799,20.0986 38.6595839,17.2916 38.1060579,13.9176 C39.9468536,13.4146 41.3529482,12.2426 42.0797605,10.5996 C42.5015889,9.6536 42.2471056,8.7016 41.4470179,8.2296 C41.0350916,7.9856 40.4746342,7.9306 39.9825011,8.0906 C39.5567119,8.2286 39.2309336,8.5096 39.0675494,8.8816 C38.5367982,10.0706 37.619866,10.6616 36.264272,10.6886 C35.8434338,10.6976 35.4800277,10.8336 35.2017794,11.0786 C34.6155766,11.4956 34.3323772,12.1676 34.4432805,12.8776 C34.6819205,14.3756 34.9265017,15.8736 35.1849459,17.3696 C31.1389581,17.0936 27.0325678,17.1096 23.0539141,17.1276 L21.8567533,17.1326 C21.8240765,16.7356 21.8211058,16.3296 21.8211058,15.8856 L21.8211058,15.8586 C21.893391,15.8506 21.9656761,15.8416 22.0399417,15.8356 C23.215318,15.7296 23.7629027,14.6956 23.6817057,13.7776 C23.6123912,12.9926 23.0697575,12.2396 21.9963726,12.3386 C20.1555769,12.5066 18.2632904,12.8286 16.3690235,13.2976 C15.7679676,13.4466 15.3481196,13.8356 15.1867158,14.3936 C15.0094686,15.0096 15.192657,15.7436 15.6451818,16.2196 C16.0709711,16.6676 16.6492522,16.8326 17.2750633,16.6746 C17.6374793,16.5846 17.998905,16.5016 18.3623111,16.4226 C18.3732034,17.0746 18.4138019,17.8056 18.5583722,18.5306 C16.7789694,20.6196 15.3065309,22.3736 13.9430152,24.0286 C12.720109,23.4296 11.3704562,23.0086 10.0722942,22.8226 C9.83365419,22.7296 9.57223942,22.6956 9.331619,22.7236 C8.68303311,22.6616 8.05128074,22.6476 7.45517584,22.6836 C6.73133418,22.7256 6.16196489,23.1506 5.91441302,23.8286 C2.42195127,25.5886 0.274191263,28.7996 0.0167373209,32.6526 C-0.124862348,34.7776 0.65146031,36.9156 2.20014479,38.6726 C4.04886214,40.7666 6.85907095,42.1486 9.53857236,42.2786 C14.3480101,42.5116 18.423704,39.3786 19.4673827,34.6336 C19.8149455,34.6166 20.5417578,34.5126 22.1597568,34.2366 L22.3677004,34.2016 C23.9520323,33.9446 25.0105641,33.7006 26.3532854,32.4866 C27.8712735,31.1156 29.28628,29.5656 30.6547467,28.0666 L31.5350411,27.1056 C31.6796114,26.9486 32.0014288,26.6376 32.412365,26.2406 C34.2640529,24.4496 35.5226066,23.1626 36.0890053,22.3156 C36.1682219,22.7256 36.2494189,23.1346 36.3316061,23.5426 C36.2791251,23.6326 36.2345658,23.7276 36.1979281,23.8266 C32.7074468,25.5886 30.5596868,28.7996 30.3002524,32.6526 C30.1586527,34.7776 30.9339852,36.9156 32.4826697,38.6716 C34.331387,40.7666 37.1415958,42.1486 39.8220875,42.2786 C39.9943836,42.2876 40.1656895,42.2916 40.3360051,42.2916 C45.4177499,42.2916 49.4261097,38.6096 49.9578511,33.3606 C50.4103759,28.9066 47.2466631,23.8556 40.3261031,22.8096" id="path-1"></path>
    </defs>
    <g id="Symbols" stroke="none" stroke-width="1" fill="none" fill-rule="evenodd">
        <g id="Icons/Medium/Indicate/cycle">
            <mask id="mask-2" fill="white">
                <use xlink:href="#path-1"></use>
            </mask>
            <use id="cycle" fill="#000000" xlink:href="#path-1"></use>
            <g id="🎨Colour-/-Icon-/-Grey-/-6" mask="url(#mask-2)"></g>
        </g>
    </g>
</svg>