<?xml version="1.0" encoding="UTF-8" standalone="no"?>
<svg width="50px" height="50px" viewBox="0 0 50 50" version="1.1" xmlns="http://www.w3.org/2000/svg" xmlns:xlink="http://www.w3.org/1999/xlink">
    <!-- Generator: Sketch 48.2 (47327) - http://www.bohemiancoding.com/sketch -->
    <title>Icons/Medium/Indicate/cloth</title>
    <desc>Created with Sketch.</desc>
    <defs>
        <path d="M42.0148052,19.805178 L38.50554,17.3142936 C37.8829707,16.9913843 37.1451431,17.0316336 36.5540079,17.4167464 C35.9637458,17.8018593 35.6031271,18.4787798 35.6031271,19.2069266 L35.6031271,42.7774799 L14.3938582,42.7774799 L14.3938582,19.2105857 C14.3938582,18.4824388 14.0367322,17.8046036 13.4464701,17.4167464 C12.8553349,17.0316336 12.1183805,16.9941285 11.4923185,17.3142936 L7.98567281,19.808837 L4.81083124,13.5271981 L13.859479,8.22252005 L16.4693804,8.22252005 C17.155691,13.2939349 20.3427569,16.6026124 24.8535467,16.743485 L24.8535467,16.7572064 C24.9015709,16.7572064 24.9513416,16.7508031 25.000239,16.7508031 C25.0491365,16.7508031 25.0989071,16.7572064 25.1478045,16.7572064 L25.1478045,16.743485 C29.6577211,16.6026124 32.844787,13.2939349 33.5310977,8.22252005 L36.140999,8.22252005 L45.1931394,13.5271981 L42.0148052,19.805178 Z M29.4280777,8.22252005 C29.041264,10.1371072 27.9585347,12.4459549 25.000239,12.520965 C22.0419433,12.4459549 20.9565945,10.1371072 20.5689076,8.22252005 L29.4280777,8.22252005 Z M13.3635191,4 C13.0360808,4 12.7173742,4.08324292 12.4257359,4.23966643 L1.07803485,10.8067096 C0.593426196,11.0747336 0.231934335,11.5376008 0.079129804,12.08737 C-0.072801558,12.6407982 -0.00382122697,13.2353905 0.267734253,13.7330185 L5.43689323,23.6252048 C5.96516033,24.5875295 7.1168699,24.955262 8.0668775,24.4640373 L10.3633113,22.595188 L10.3633113,44.8896547 C10.3633113,46.0541409 11.2652946,47 12.3803311,47 L37.6210201,47 C38.7325639,47 39.633674,46.0541409 39.633674,44.8896547 L39.633674,22.595188 L41.9292347,24.4640373 C42.8844813,24.951603 44.0326982,24.5875295 44.5635848,23.6252048 L49.7283779,13.7330185 C50.0042992,13.2353905 50.0732796,12.6407982 49.9196019,12.08737 C49.7676705,11.5376008 49.4044323,11.0747336 48.9189505,10.8067096 L37.5712495,4.23966643 C37.2822306,4.08324292 36.9643972,4 36.6369589,4 L13.3635191,4 Z" id="path-1"></path>
    </defs>
    <g id="Symbols" stroke="none" stroke-width="1" fill="none" fill-rule="evenodd">
        <g id="Icons/Medium/Indicate/cloth">
            <mask id="mask-2" fill="white">
                <use xlink:href="#path-1"></use>
            </mask>
            <use id="cloth" fill="#000000" xlink:href="#path-1"></use>
            <g id="🎨Colour-/-Icon-/-Grey-/-6" mask="url(#mask-2)"></g>
        </g>
    </g>
</svg>