<svg xmlns="http://www.w3.org/2000/svg" xmlns:xlink="http://www.w3.org/1999/xlink" width="40" height="40" viewBox="0 0 40 40">
    <defs>
        <path id="a" d="M20 38.286C9.917 38.286 1.714 30.083 1.714 20 1.714 9.917 9.917 1.714 20 1.714c10.083 0 18.286 8.203 18.286 18.286 0 10.083-8.203 18.286-18.286 18.286M20 0C8.954 0 0 8.954 0 20s8.954 20 20 20 20-8.954 20-20S31.046 0 20 0"/>
        <path id="b" d="M2.632 5.045v3.382H.286v4.137h2.346v12.293h4.821V12.565h3.235s.303-1.984.45-4.152H7.47v-2.83c0-.422.526-.99 1.045-.99h2.627V.285H7.572c-5.059 0-4.94 4.14-4.94 4.759"/>
    </defs>
    <g fill="none" fill-rule="evenodd">
        <use fill="#FFF" xlink:href="#a"/>
        <use fill="#FFF" transform="translate(14.286 7.429)" xlink:href="#b"/>
    </g>
</svg>
