<?xml version="1.0" encoding="UTF-8"?>
<svg width="50px" height="50px" viewBox="0 0 50 50" version="1.1" xmlns="http://www.w3.org/2000/svg" xmlns:xlink="http://www.w3.org/1999/xlink">
    <!-- Generator: Sketch 48.2 (47327) - http://www.bohemiancoding.com/sketch -->
    <title>Icons/Medium/Indicate/hanger</title>
    <desc>Created with Sketch.</desc>
    <defs>
        <path d="M45.5199,37.8084 C45.4249,38.1534 45.1079,38.5204 44.5889,38.5204 L5.5579,38.5204 C5.0129,38.5204 4.7089,38.1624 4.6139,37.8634 C4.4909,37.4724 4.6499,37.0724 5.0169,36.8144 L25.0239,24.2904 L45.1439,36.8644 C45.6389,37.1774 45.5749,37.6314 45.5199,37.8084 M47.6229,33.3044 L26.9499,20.3534 L26.9499,19.3824 C26.9499,18.8054 27.2449,18.3424 27.8739,17.9254 C27.9529,17.8754 28.0429,17.8214 28.1479,17.7574 C29.1509,17.1394 31.2449,15.8584 31.2449,12.9754 C31.2449,9.9744 28.7699,7.6764 26.3809,7.1814 C23.8659,6.6594 21.5819,7.2734 20.0969,8.9034 C18.7449,10.3874 18.3629,11.6224 18.2819,13.6244 C18.2769,13.7694 18.2719,14.0834 18.2679,14.3884 C18.2629,14.8104 19.0939,15.1504 20.1239,15.1504 L20.4929,15.1504 C21.5239,15.1504 22.3529,14.8104 22.3579,14.3884 C22.3579,14.0434 22.3629,13.6934 22.3629,13.6244 C22.4219,12.2454 22.7939,11.4324 24.2019,11.1464 C25.0829,10.9684 26.0279,11.2134 26.5849,11.7594 C26.8349,12.0044 26.9719,12.4314 26.9309,12.8664 C26.9079,13.1624 26.7809,13.7114 26.2309,14.0934 L24.4569,15.2964 C23.3299,16.0224 22.8489,16.8854 22.8489,18.1924 L22.8489,20.3584 L2.3799,33.2584 C-0.6531,35.1294 -0.0261,38.3214 0.2409,39.2524 C0.4819,40.1064 1.5839,42.8804 5.6029,42.8804 L44.6479,42.8804 C47.4909,42.8804 49.2889,41.0314 49.8119,39.2024 C50.3509,37.2864 49.7649,34.5664 47.6229,33.3044" id="path-1"></path>
    </defs>
    <g id="Symbols" stroke="none" stroke-width="1" fill="none" fill-rule="evenodd">
        <g id="Icons/Medium/Indicate/hanger">
            <mask id="mask-2" fill="white">
                <use xlink:href="#path-1"></use>
            </mask>
            <use id="hanger" fill="#000000" xlink:href="#path-1"></use>
            <g id="🎨Colour-/-Icon-/-Grey-/-6" mask="url(#mask-2)"></g>
        </g>
    </g>
</svg>