<svg xmlns="http://www.w3.org/2000/svg" xmlns:xlink="http://www.w3.org/1999/xlink" width="40" height="40" viewBox="0 0 40 40">
    <defs>
        <path id="a" d="M20 38.286C9.917 38.286 1.714 30.083 1.714 20 1.714 9.917 9.917 1.714 20 1.714c10.083 0 18.286 8.203 18.286 18.286 0 10.083-8.203 18.286-18.286 18.286M20 0C8.954 0 0 8.954 0 20s8.954 20 20 20 20-8.954 20-20S31.046 0 20 0"/>
        <path id="b" d="M0 0h23.178v21.925H0z"/>
    </defs>
    <g fill="none" fill-rule="evenodd">
        <use fill="#FFF" xlink:href="#a"/>
        <g transform="translate(8.571 9.143)">
            <mask id="c" fill="#fff">
                <use xlink:href="#b"/>
            </mask>
            <path fill="#FFF" d="M18.697 8.845a.593.593 0 0 1 0 1.185H16.92v1.052h1.778a.593.593 0 0 1 0 1.185h-2.37a.593.593 0 0 1-.593-.593V7.2c0-.327.265-.592.593-.592h2.37a.593.593 0 0 1 0 1.185H16.92v1.052h1.778zm-3.852 2.805c0 .329-.269.62-.598.617a.588.588 0 0 1-.4-.162 717.837 717.837 0 0 1-2.439-3.147v2.716a.592.592 0 1 1-1.185 0v-4.45c0-.322.247-.604.57-.616a.587.587 0 0 1 .464.198c.036.041 2.403 3.128 2.403 3.128V7.2a.593.593 0 0 1 1.185 0v4.45zm-5.511.154a.463.463 0 0 1-.463.463h-.259a.463.463 0 0 1-.463-.463V7.071c0-.256.207-.463.463-.463h.259c.255 0 .463.207.463.463v4.733zm-2.34.463H4.621a.592.592 0 0 1-.592-.593V7.2a.593.593 0 0 1 1.185 0v3.882h1.778a.593.593 0 0 1 0 1.185zm16.165-3.48C22.878 3.897 17.804 0 11.586 0 5.186 0 0 4.126 0 9.215c0 4.678 4.382 8.542 10.06 9.137.347.036.597.349.558.696l-.241 2.175a.631.631 0 0 0 .903.637c4.797-2.314 7.665-4.696 9.378-6.76.312-.375 1.328-1.798 1.535-2.172.44-.794.743-1.647.885-2.54.053-.28.08-.515.092-.7a9.03 9.03 0 0 0-.01-.901z" mask="url(#c)"/>
        </g>
    </g>
</svg>
