<?xml version="1.0" encoding="UTF-8" standalone="no"?>
<svg width="50px" height="50px" viewBox="0 0 50 50" version="1.1" xmlns="http://www.w3.org/2000/svg" xmlns:xlink="http://www.w3.org/1999/xlink">
    <!-- Generator: Sketch 48.2 (47327) - http://www.bohemiancoding.com/sketch -->
    <title>Icons/Medium/Indicate/phone</title>
    <desc>Created with Sketch.</desc>
    <defs>
        <path d="M29.4372,40.7752 C14.2162,31.6022 11.6142,15.6062 11.5492,15.5142 C10.7292,11.4072 10.9922,9.3962 12.8152,8.1052 C15.0722,6.5062 18.1272,6.9562 19.6602,9.1202 C21.1992,11.2942 20.6022,14.3172 18.3462,15.9152 C18.1712,16.0382 17.9132,16.2212 17.5962,16.3202 C16.6702,16.8502 16.1622,17.9852 16.6092,18.9692 C18.2922,23.3782 20.3932,29.6792 27.9162,34.9392 C28.7882,35.6222 29.9422,35.5922 30.6842,34.8042 C30.8842,34.5382 31.0592,34.4142 31.3162,34.2322 C33.5732,32.6342 36.6282,33.0832 38.1612,35.2472 C39.6942,37.4122 39.1032,40.4432 36.8472,42.0412 C35.1072,43.2742 33.0982,42.9962 29.4372,40.7752 M41.6922,32.8722 C38.9272,28.9672 33.4372,28.0292 29.3252,30.6782 C24.8502,26.9352 23.6232,25.2032 21.0892,19.0472 C24.8702,16.1072 25.8082,10.6172 23.0432,6.7122 C20.2132,2.7162 14.4902,1.8192 10.5022,4.6432 C5.8142,7.9622 7.0112,13.8902 7.5202,16.2672 C7.6192,16.5852 10.4362,33.3792 27.4362,44.3922 C29.6582,45.6942 34.7012,48.7732 39.3892,45.4542 C43.4682,42.5652 44.5222,36.8682 41.6922,32.8722" id="path-1"></path>
    </defs>
    <g id="Symbols" stroke="none" stroke-width="1" fill="none" fill-rule="evenodd">
        <g id="Icons/Medium/Indicate/phone">
            <mask id="mask-2" fill="white">
                <use xlink:href="#path-1"></use>
            </mask>
            <use id="phone" fill="#000000" xlink:href="#path-1"></use>
            <g id="🎨Colour-/-Icon-/-Grey-/-6" mask="url(#mask-2)"></g>
        </g>
    </g>
</svg>