<?xml version="1.0" encoding="UTF-8" standalone="no"?>
<svg width="50px" height="50px" viewBox="0 0 50 50" version="1.1" xmlns="http://www.w3.org/2000/svg" xmlns:xlink="http://www.w3.org/1999/xlink">
    <!-- Generator: Sketch 48.2 (47327) - http://www.bohemiancoding.com/sketch -->
    <title>Icons/Medium/Indicate/shower</title>
    <desc>Created with Sketch.</desc>
    <defs>
        <path d="M28.8969,19.6968 L12.8609,19.6968 C13.8519,16.2028 17.0709,13.6358 20.8779,13.6358 C24.6869,13.6358 27.9059,16.2028 28.8969,19.6968 M33.0009,-0.0002 C38.4299,-0.0002 42.8479,4.4178 42.8479,9.8488 L42.8479,47.7268 C42.8479,48.9828 41.8319,49.9998 40.5759,49.9998 C39.3209,49.9998 38.3029,48.9828 38.3029,47.7268 L38.3029,9.8488 C38.3029,6.9248 35.9239,4.5458 33.0009,4.5458 L28.4549,4.5458 C25.7149,4.5458 23.4549,6.6338 23.1789,9.3008 C29.1859,10.3888 33.7569,15.6538 33.7569,21.9698 C33.7569,23.2248 32.7409,24.2428 31.4849,24.2428 L10.2729,24.2428 C9.0169,24.2428 8.0009,23.2248 8.0009,21.9698 C8.0009,15.6378 12.5929,10.3638 18.6229,9.2928 C18.9129,4.1198 23.2099,-0.0002 28.4549,-0.0002 L33.0009,-0.0002 Z M28.4545,28.7881 C29.7105,28.7881 30.7265,29.8051 30.7265,31.0601 L30.7265,34.0911 C30.7265,35.3461 29.7105,36.3641 28.4545,36.3641 C27.1985,36.3641 26.1825,35.3461 26.1825,34.0911 L26.1825,31.0601 C26.1825,29.8051 27.1985,28.7881 28.4545,28.7881 Z M10.2729,28.7881 C11.5279,28.7881 12.5449,29.8051 12.5449,31.0601 L12.5449,34.0911 C12.5449,35.3461 11.5279,36.3641 10.2729,36.3641 C9.0169,36.3641 8.0009,35.3461 8.0009,34.0911 L8.0009,31.0601 C8.0009,29.8051 9.0169,28.7881 10.2729,28.7881 Z M19.3637,28.7881 C20.6197,28.7881 21.6357,29.8051 21.6357,31.0601 L21.6357,34.0911 C21.6357,35.3461 20.6197,36.3641 19.3637,36.3641 C18.1077,36.3641 17.0917,35.3461 17.0917,34.0911 L17.0917,31.0601 C17.0917,29.8051 18.1077,28.7881 19.3637,28.7881 Z M28.4545,40.9092 C29.7105,40.9092 30.7265,41.9262 30.7265,43.1812 L30.7265,46.2122 C30.7265,47.4682 29.7105,48.4852 28.4545,48.4852 C27.1985,48.4852 26.1825,47.4682 26.1825,46.2122 L26.1825,43.1812 C26.1825,41.9262 27.1985,40.9092 28.4545,40.9092 Z M10.2729,40.9092 C11.5279,40.9092 12.5449,41.9262 12.5449,43.1812 L12.5449,46.2122 C12.5449,47.4682 11.5279,48.4852 10.2729,48.4852 C9.0169,48.4852 8.0009,47.4682 8.0009,46.2122 L8.0009,43.1812 C8.0009,41.9262 9.0169,40.9092 10.2729,40.9092 Z M19.3637,40.9092 C20.6197,40.9092 21.6357,41.9262 21.6357,43.1812 L21.6357,46.2122 C21.6357,47.4682 20.6197,48.4852 19.3637,48.4852 C18.1077,48.4852 17.0917,47.4682 17.0917,46.2122 L17.0917,43.1812 C17.0917,41.9262 18.1077,40.9092 19.3637,40.9092 Z" id="path-1"></path>
    </defs>
    <g id="Symbols" stroke="none" stroke-width="1" fill="none" fill-rule="evenodd">
        <g id="Icons/Medium/Indicate/shower">
            <mask id="mask-2" fill="white">
                <use xlink:href="#path-1"></use>
            </mask>
            <use id="shower" fill="#000000" xlink:href="#path-1"></use>
            <g id="🎨Colour-/-Icon-/-Grey-/-6" mask="url(#mask-2)"></g>
        </g>
    </g>
</svg>