<svg xmlns="http://www.w3.org/2000/svg" xmlns:xlink="http://www.w3.org/1999/xlink" width="40" height="40" viewBox="0 0 40 40">
    <defs>
        <path id="a" d="M20 38.286C9.917 38.286 1.714 30.083 1.714 20 1.714 9.917 9.917 1.714 20 1.714c10.083 0 18.286 8.203 18.286 18.286 0 10.083-8.203 18.286-18.286 18.286M20 0C8.954 0 0 8.954 0 20s8.954 20 20 20 20-8.954 20-20S31.046 0 20 0"/>
    </defs>
    <g fill="none" fill-rule="evenodd">
        <use fill="#FFF" xlink:href="#a"/>
        <g fill="#FFF">
            <path d="M26.869 18.971c-.618 0-1.098.48-1.098 1.098 0 .617.48 1.097 1.098 1.097.617 0 1.097-.48 1.097-1.097 0-.618-.48-1.098-1.097-1.098M13.84 18.971c-.617 0-1.097.48-1.097 1.098 0 .617.48 1.097 1.097 1.097s1.097-.48 1.097-1.097c0-.618-.48-1.098-1.097-1.098"/>
            <path d="M26.937 22.743a2.61 2.61 0 0 1-1.783-.754 2.49 2.49 0 0 1-.754-1.783c0-.686.274-1.303.754-1.783a2.49 2.49 0 0 1 1.783-.754c1.372 0 2.537 1.165 2.537 2.537 0 1.371-1.165 2.537-2.537 2.537m.069-5.829c-.892 0-1.715.343-2.332.96a3.265 3.265 0 0 0-.96 2.332c0 .892.343 1.714.96 2.331.617.618 1.44.96 2.332.96a3.293 3.293 0 0 0 0-6.583M13.291 22.743a2.487 2.487 0 0 1-1.782-.754 2.49 2.49 0 0 1-.755-1.783c0-.686.275-1.303.755-1.783a2.49 2.49 0 0 1 1.782-.754c1.372 0 2.538 1.165 2.538 2.537 0 1.371-1.166 2.537-2.538 2.537m0-5.829c-.891 0-1.714.343-2.331.96a3.265 3.265 0 0 0-.96 2.332c0 .892.343 1.714.96 2.331.617.618 1.44.96 2.331.96a3.293 3.293 0 0 0 0-6.583"/>
            <path d="M26.526 25.897c-3.017 0-5.417-2.468-5.417-5.417 0-3.017 2.468-5.417 5.417-5.417 3.017 0 5.417 2.468 5.417 5.417.068 3.017-2.4 5.417-5.417 5.417m-6.857-6.514c-1.646-6.172-6.515-5.28-6.515-5.28s1.715-1.92 6.309-1.92h.411v-.069c4.595 0 6.309 1.92 6.309 1.92s-4.869-.823-6.514 5.349m-6.172 6.514c-3.017 0-5.417-2.468-5.417-5.417 0-3.017 2.469-5.417 5.417-5.417 3.017 0 5.417 2.468 5.417 5.417 0 3.017-2.4 5.417-5.417 5.417m18.446-9.668c.274-.755.617-1.646 1.166-2.195H28.65c-.068 0-.137-.068-.205-.068-.275-.412-1.92-2.537-8.503-2.537-7.269 0-8.572 2.605-8.572 2.605H6.71c.617.617 1.028 1.646 1.234 2.4C7.12 17.6 6.57 18.971 6.57 20.55c0 3.771 3.018 6.857 6.789 6.857 2.057 0 3.909-.96 5.143-2.4L20.01 27.2l1.303-2.263c1.235 1.509 3.155 2.537 5.212 2.537 3.703 0 6.788-3.085 6.788-6.857a6.041 6.041 0 0 0-1.371-4.388"/>
        </g>
    </g>
</svg>
