<?xml version="1.0" encoding="UTF-8" standalone="no"?>
<svg width="50px" height="50px" viewBox="0 0 50 50" version="1.1" xmlns="http://www.w3.org/2000/svg" xmlns:xlink="http://www.w3.org/1999/xlink">
    <!-- Generator: Sketch 48.2 (47327) - http://www.bohemiancoding.com/sketch -->
    <title>Icons/Medium/Indicate/tv</title>
    <desc>Created with Sketch.</desc>
    <defs>
        <path d="M4.246,41.8321 L45.826,41.8321 L45.826,11.3871 L4.246,11.3871 L4.246,41.8321 Z M45.826,7.2431 L29.751,7.2431 L34.038,3.8651 C34.915,3.1001 35.129,1.7931 34.364,0.9151 C33.599,0.0381 32.292,-0.1769 31.415,0.5891 L24.985,5.6001 L18.544,0.4661 C17.565,-0.2989 16.36,-0.0749 15.595,0.7931 C14.829,1.7731 15.054,2.9771 15.922,3.7421 L20.351,7.2331 L4.144,7.2331 C1.847,7.2331 0,9.0901 0,11.3771 L0,41.9341 C0,44.2301 1.857,46.0781 4.144,46.0781 L7.195,46.0781 L7.195,47.9351 C7.195,49.0281 8.073,50.0071 9.268,50.0071 C10.359,50.0071 11.339,49.0281 11.339,47.9351 L11.339,46.0781 L38.62,46.0781 L38.62,47.9351 C38.62,49.0281 39.498,50.0071 40.692,50.0071 C41.886,50.0071 42.764,49.0281 42.764,47.9351 L42.764,46.0781 L45.815,46.0781 C48.112,46.0781 49.959,44.2201 49.959,41.9341 L49.959,11.3861 C49.98,9.0901 48.122,7.2431 45.826,7.2431 Z M11.339,34.1981 L30.659,34.1981 L30.659,19.0211 L11.339,19.0211 L11.339,34.1981 Z M10.798,38.3411 C8.839,38.3411 7.195,36.7081 7.195,34.7391 L7.195,18.4801 C7.195,16.5101 8.839,14.8771 10.798,14.8771 L31.2,14.8771 C33.17,14.8771 34.803,16.5211 34.803,18.4801 L34.803,34.7391 C34.803,36.7081 33.16,38.3411 31.2,38.3411 L10.798,38.3411 Z M40.7021,24.0427 C39.4981,24.0427 38.6301,23.0627 38.6301,21.9707 L38.6301,20.0107 C38.6301,18.8167 39.6101,17.9387 40.7021,17.9387 C41.8961,17.9387 42.7741,18.9187 42.7741,20.0107 L42.7741,21.9707 C42.7741,23.0627 41.9071,24.0427 40.7021,24.0427 Z M40.7021,33.7586 C39.4981,33.7586 38.6301,32.7786 38.6301,31.6866 L38.6301,29.7276 C38.6301,28.5336 39.6101,27.6546 40.7021,27.6546 C41.8961,27.6546 42.7741,28.6356 42.7741,29.7276 L42.7741,31.6866 C42.7741,32.7786 41.9071,33.7586 40.7021,33.7586 Z" id="path-1"></path>
    </defs>
    <g id="Symbols" stroke="none" stroke-width="1" fill="none" fill-rule="evenodd">
        <g id="Icons/Medium/Indicate/tv">
            <mask id="mask-2" fill="white">
                <use xlink:href="#path-1"></use>
            </mask>
            <use id="tv" fill="#000000" xlink:href="#path-1"></use>
            <g id="🎨Colour-/-Icon-/-Grey-/-6" mask="url(#mask-2)"></g>
        </g>
    </g>
</svg>