<svg xmlns="http://www.w3.org/2000/svg" xmlns:xlink="http://www.w3.org/1999/xlink" width="40" height="40" viewBox="0 0 40 40">
    <defs>
        <path id="a" d="M20 38.286C9.917 38.286 1.714 30.083 1.714 20 1.714 9.917 9.917 1.714 20 1.714c10.083 0 18.286 8.203 18.286 18.286 0 10.083-8.203 18.286-18.286 18.286M20 0C8.954 0 0 8.954 0 20s8.954 20 20 20 20-8.954 20-20S31.046 0 20 0"/>
        <path id="b" d="M.028.11h13.509v12.298H.028z"/>
        <path id="d" d="M0 .618h15.798v15.317H0z"/>
    </defs>
    <g fill="none" fill-rule="evenodd">
        <use fill="#FFF" xlink:href="#a"/>
        <g transform="translate(17.714 17.586)">
            <mask id="c" fill="#fff">
                <use xlink:href="#b"/>
            </mask>
            <path fill="#FFF" d="M8.68 4.898a.754.754 0 0 1-.784-.783c0-.393.392-.72.784-.72s.783.393.783.784c0 .392-.326.719-.783.719m-4.898.066c-.392 0-.784-.393-.784-.785 0-.39.327-.783.784-.783s.783.392.783.783a.755.755 0 0 1-.783.785m8.49-2.286C10.182-.066 5.806-.72 2.802 1.24c-3.33 2.22-3.722 6.335-.849 9.012 1.502 1.372 3.33 1.959 5.42 1.763.719-.065 1.372-.457 2.025-.391.653.065 1.306.456 1.96.783-.066-.196-.066-.392-.131-.523-.457-.783-.196-1.24.457-1.828 2.22-2.024 2.481-5.16.588-7.38" mask="url(#c)"/>
        </g>
        <g transform="translate(8.571 9.75)">
            <mask id="e" fill="#fff">
                <use xlink:href="#d"/>
            </mask>
            <path fill="#FFF" d="M5.088 7.118c-.523 0-.914-.457-.914-.98 0-.522.457-.914.98-.914.522 0 .914.458.914.98 0 .523-.458.914-.98.914m6.008-1.894c.523 0 .98.392.98.915 0 .588-.392.98-.915.98-.522 0-.98-.458-1.044-.915 0-.522.457-.98.98-.98m-.72 4.05c1.503-1.503 3.331-2.09 5.421-2.22-.13-1.307-.588-2.352-1.306-3.332-2.09-2.677-5.878-3.787-9.208-2.677-2.482.784-4.31 2.35-5.029 4.898-.783 2.743.262 5.42 2.808 7.184.392.26.458.457.327.914-.196.588-.327 1.175-.457 1.894.849-.523 1.567-.98 2.286-1.372.195-.13.522-.13.783-.13.784.065 1.502.13 2.351.326-.196-2.22.523-4.049 2.025-5.486" mask="url(#e)"/>
        </g>
    </g>
</svg>
